 
<svg width="160" height="160" viewBox="0 0 160 160" fill="none" xmlns="http://www.w3.org/2000/svg">
<g clip-path="url(#clip0)">
<mask id="mask0" mask-type="alpha" maskUnits="userSpaceOnUse" x="1" y="0" width="67" height="49">
<path d="M29.8819 5.28179C17.1225 7.73604 7.14158 17.7701 4.70349 30.6032C3.56825 36.5741 2.63873 42.5731 1.91492 48.5925C14.5244 47.2159 30.047 43.5333 43.2508 34.4569C54.2248 26.9129 60.0483 14.0517 67.1568 0.845764C54.6692 1.43315 42.2121 2.91183 29.8819 5.28179Z" fill="white"/>
</mask>
<g mask="url(#mask0)">
<path fill-rule="evenodd" clip-rule="evenodd" d="M29.8819 5.28179C17.1225 7.73604 7.14158 17.7701 4.70349 30.6032C3.56825 36.5741 2.63873 42.5731 1.91492 48.5925C14.5244 47.2159 30.047 43.5333 43.2508 34.4569C54.2248 26.9129 60.0483 14.0517 67.1568 0.845764C54.6692 1.43315 42.2121 2.91183 29.8819 5.28179Z" fill="url(#paint0_linear)"/>
</g>
<mask id="mask1" mask-type="alpha" maskUnits="userSpaceOnUse" x="0" y="0" width="145" height="115">
<path d="M79.0095 0.554626C74.3416 0.562288 69.6737 0.697642 65.0083 0.95558C58.1486 13.7095 52.5079 26.1186 41.9073 33.4048C29.1962 42.1415 14.273 45.7194 2.10286 47.0704C-0.716187 69.4293 -0.698409 92.0564 2.15873 114.408C13.7092 98.3567 28.7543 91.2417 39.266 89.8115C75.8984 84.8367 87.4235 60.1027 103.944 33.7368C113.041 19.2156 128.978 13.9163 144.028 12.55C139.891 8.92358 134.801 6.36463 129.168 5.2818C112.94 2.16355 96.4902 0.585273 80.0381 0.554626H79.0095Z" fill="white"/>
</mask>
<g mask="url(#mask1)">
<path fill-rule="evenodd" clip-rule="evenodd" d="M79.0095 0.554626C74.3416 0.562288 69.6737 0.697642 65.0083 0.95558C58.1486 13.7095 52.5079 26.1186 41.9073 33.4048C29.1962 42.1415 14.273 45.7194 2.10286 47.0704C-0.716187 69.4293 -0.698409 92.0564 2.15873 114.408C13.7092 98.3567 28.7543 91.2417 39.266 89.8115C75.8984 84.8367 87.4235 60.1027 103.944 33.7368C113.041 19.2156 128.978 13.9163 144.028 12.55C139.891 8.92358 134.801 6.36463 129.168 5.2818C112.94 2.16355 96.4902 0.585273 80.0381 0.554626H79.0095Z" fill="url(#paint1_linear)"/>
</g>
<mask id="mask2" mask-type="alpha" maskUnits="userSpaceOnUse" x="0" y="11" width="160" height="145">
<path d="M103.944 32.4087C87.4235 58.7772 79.5226 77.9821 42.8927 82.9621C31.9822 84.4408 12.7365 85.0078 0.868591 102.034C1.63558 111.55 2.91558 121.032 4.70351 130.443C7.10859 143.113 16.8711 153.052 29.3994 155.665C31.6216 136.738 38.8038 119.758 58.7353 107.732C88.4343 89.8115 100.312 100.762 131.002 91.8035C142.857 88.3431 152.056 82.3288 159.012 76.0157C158.756 60.805 157.199 45.6096 154.344 30.6032C152.864 22.7935 148.589 16.0233 142.593 11.3651C127.972 12.9357 112.752 18.3498 103.944 32.4087Z" fill="white"/>
</mask>
<g mask="url(#mask2)">
<path fill-rule="evenodd" clip-rule="evenodd" d="M103.944 32.4087C87.4235 58.7772 79.5226 77.9821 42.8927 82.9621C31.9822 84.4408 12.7365 85.0078 0.868591 102.034C1.63558 111.55 2.91558 121.032 4.70351 130.443C7.10859 143.113 16.8711 153.052 29.3994 155.665C31.6216 136.738 38.8038 119.758 58.7353 107.732C88.4343 89.8115 100.312 100.762 131.002 91.8035C142.857 88.3431 152.056 82.3288 159.012 76.0157C158.756 60.805 157.199 45.6096 154.344 30.6032C152.864 22.7935 148.589 16.0233 142.593 11.3651C127.972 12.9357 112.752 18.3498 103.944 32.4087Z" fill="url(#paint2_linear)"/>
</g>
<mask id="mask3" mask-type="alpha" maskUnits="userSpaceOnUse" x="90" y="119" width="67" height="42">
<path d="M126.024 123.042C102.499 131.687 93.6178 150.435 90.4889 160.262C103.446 159.721 116.373 158.221 129.168 155.762C141.93 153.308 151.909 143.274 154.344 130.443C155.043 126.768 155.665 123.083 156.208 119.39C155.126 119.367 154.024 119.354 152.907 119.354C143.86 119.354 133.801 120.179 126.024 123.042Z" fill="white"/>
</mask>
<g mask="url(#mask3)">
<path fill-rule="evenodd" clip-rule="evenodd" d="M126.024 123.042C102.499 131.687 93.6178 150.435 90.4889 160.262C103.446 159.721 116.373 158.221 129.168 155.762C141.93 153.308 151.909 143.274 154.344 130.443C155.043 126.768 155.665 123.083 156.208 119.39C155.126 119.367 154.024 119.354 152.907 119.354C143.86 119.354 133.801 120.179 126.024 123.042Z" fill="url(#paint3_linear)"/>
</g>
<mask id="mask4" mask-type="alpha" maskUnits="userSpaceOnUse" x="27" y="74" width="133" height="87">
<path d="M130.596 90.8152C99.4641 99.9018 87.4159 88.7951 57.2876 106.971C37.1962 119.091 29.8743 136.177 27.5708 155.228C28.3302 155.433 29.0997 155.611 29.8819 155.762C46.1079 158.88 62.5524 160.459 79.0019 160.489H80.0483C84.6273 160.482 89.2064 160.351 93.7803 160.104C96.8127 150.698 105.305 133 127.581 124.809C135.784 121.793 146.644 121.15 155.916 121.323C158.004 107.803 159.05 94.1633 159.05 80.5232C159.05 78.6206 159.03 76.718 158.989 74.8154C151.937 81.2179 142.611 87.3037 130.596 90.8152Z" fill="white"/>
</mask>
<g mask="url(#mask4)">
<path fill-rule="evenodd" clip-rule="evenodd" d="M130.596 90.8152C99.4641 99.9018 87.4159 88.7951 57.2876 106.971C37.1962 119.091 29.8743 136.177 27.5708 155.228C28.3302 155.433 29.0997 155.611 29.8819 155.762C46.1079 158.88 62.5524 160.459 79.0019 160.489H80.0483C84.6273 160.482 89.2064 160.351 93.7803 160.104C96.8127 150.698 105.305 133 127.581 124.809C135.784 121.793 146.644 121.15 155.916 121.323C158.004 107.803 159.05 94.1633 159.05 80.5232C159.05 78.6206 159.03 76.718 158.989 74.8154C151.937 81.2179 142.611 87.3037 130.596 90.8152Z" fill="url(#paint4_linear)"/>
</g>
<path d="M21.03 56V31.5H40.35V36.715H27.05V41.125H35.835V46.165H27.05V50.785H40.49V56H21.03ZM43.7529 56V37.485H49.4229V38.675C50.0763 38.1617 50.7879 37.7767 51.5579 37.52C52.3513 37.2633 53.1796 37.135 54.0429 37.135C55.1863 37.135 56.2246 37.3683 57.1579 37.835C58.1146 38.2783 58.9079 38.8967 59.5379 39.69C60.2846 38.8733 61.1713 38.2433 62.1979 37.8C63.2246 37.3567 64.3446 37.135 65.5579 37.135C67.6579 37.135 69.3729 37.835 70.7029 39.235C72.0563 40.635 72.7329 42.42 72.7329 44.59V56H67.0629V45.36C67.0629 44.3567 66.7829 43.5517 66.2229 42.945C65.6863 42.315 64.9629 42 64.0529 42C63.4229 42 62.8513 42.1283 62.3379 42.385C61.8246 42.6183 61.3813 42.9567 61.0079 43.4C61.0313 43.5867 61.0429 43.785 61.0429 43.995C61.0663 44.1817 61.0779 44.38 61.0779 44.59V56H55.4079V45.36C55.4079 44.3567 55.1279 43.5517 54.5679 42.945C54.0313 42.315 53.3079 42 52.3979 42C51.7679 42 51.1963 42.1167 50.6829 42.35C50.1929 42.56 49.7729 42.8867 49.4229 43.33V56H43.7529ZM82.0019 56.315C80.0419 56.315 78.4319 55.7783 77.1719 54.705C75.9119 53.6317 75.2819 52.255 75.2819 50.575C75.2819 48.825 75.9469 47.46 77.2769 46.48C78.6302 45.5 80.5086 45.01 82.9119 45.01C83.6352 45.01 84.3469 45.0567 85.0469 45.15C85.7469 45.2433 86.4352 45.3717 87.1119 45.535V44.625C87.1119 43.6917 86.8086 43.0033 86.2019 42.56C85.6186 42.0933 84.7436 41.86 83.5769 41.86C82.8536 41.86 82.0369 41.9767 81.1269 42.21C80.2169 42.4433 79.1669 42.8167 77.9769 43.33L75.9469 39.165C77.4402 38.4883 78.8986 37.9867 80.3219 37.66C81.7686 37.31 83.1919 37.135 84.5919 37.135C87.1586 37.135 89.1536 37.7533 90.5769 38.99C92.0002 40.2033 92.7119 41.9183 92.7119 44.135V56H87.1119V54.88C86.3652 55.3933 85.5719 55.7667 84.7319 56C83.9152 56.21 83.0052 56.315 82.0019 56.315ZM80.6719 50.47C80.6719 51.0533 80.9286 51.5083 81.4419 51.835C81.9552 52.1617 82.6669 52.325 83.5769 52.325C84.2536 52.325 84.8836 52.255 85.4669 52.115C86.0736 51.975 86.6219 51.7533 87.1119 51.45V49.07C86.5752 48.93 86.0269 48.825 85.4669 48.755C84.9069 48.685 84.3352 48.65 83.7519 48.65C82.7719 48.65 82.0136 48.8133 81.4769 49.14C80.9402 49.4433 80.6719 49.8867 80.6719 50.47ZM98.917 35.77C98.0537 35.77 97.3187 35.4667 96.712 34.86C96.1054 34.2533 95.802 33.5183 95.802 32.655C95.802 31.7917 96.1054 31.0567 96.712 30.45C97.3187 29.8433 98.0537 29.54 98.917 29.54C99.7804 29.54 100.515 29.8433 101.122 30.45C101.729 31.0567 102.032 31.7917 102.032 32.655C102.032 33.5183 101.729 34.2533 101.122 34.86C100.515 35.4667 99.7804 35.77 98.917 35.77ZM101.752 37.485V56H96.082V37.485H101.752ZM110.912 30.275V56H105.242V31.5L110.912 30.275ZM25.225 73.765C25.735 73.765 26.205 73.655 26.635 73.435C27.075 73.215 27.47 72.89 27.82 72.46L29.515 74.125C29.025 74.735 28.38 75.225 27.58 75.595C26.79 75.965 25.975 76.15 25.135 76.15C24.345 76.15 23.6 76.01 22.9 75.73C22.21 75.45 21.615 75.07 21.115 74.59C20.615 74.11 20.22 73.54 19.93 72.88C19.64 72.22 19.495 71.51 19.495 70.75C19.495 69.99 19.64 69.28 19.93 68.62C20.22 67.95 20.615 67.375 21.115 66.895C21.625 66.415 22.225 66.035 22.915 65.755C23.605 65.475 24.345 65.335 25.135 65.335C25.565 65.335 25.995 65.385 26.425 65.485C26.855 65.585 27.265 65.725 27.655 65.905C28.045 66.075 28.405 66.29 28.735 66.55C29.065 66.8 29.35 67.08 29.59 67.39L27.85 69.1C27.48 68.64 27.065 68.295 26.605 68.065C26.155 67.825 25.665 67.705 25.135 67.705C24.715 67.705 24.32 67.785 23.95 67.945C23.59 68.095 23.275 68.305 23.005 68.575C22.745 68.845 22.535 69.17 22.375 69.55C22.225 69.92 22.15 70.32 22.15 70.75C22.15 71.18 22.225 71.58 22.375 71.95C22.535 72.31 22.75 72.625 23.02 72.895C23.3 73.165 23.625 73.38 23.995 73.54C24.375 73.69 24.785 73.765 25.225 73.765ZM32.5643 68.065V72.625C32.5643 73.055 32.6943 73.405 32.9543 73.675C33.2243 73.935 33.5743 74.065 34.0043 74.065C34.3143 74.065 34.5893 74.01 34.8293 73.9C35.0693 73.79 35.2693 73.635 35.4293 73.435V68.065H37.8593V76H35.4293V75.46C35.1393 75.68 34.8093 75.85 34.4393 75.97C34.0793 76.09 33.6993 76.15 33.2993 76.15C32.3693 76.15 31.6093 75.85 31.0193 75.25C30.4293 74.65 30.1343 73.885 30.1343 72.955V68.065H32.5643ZM38.7493 75.115L39.9043 73.48C40.4043 73.78 40.8593 74 41.2693 74.14C41.6793 74.27 42.0843 74.335 42.4843 74.335C42.8843 74.335 43.1993 74.28 43.4293 74.17C43.6693 74.05 43.7893 73.895 43.7893 73.705C43.7893 73.555 43.7243 73.435 43.5943 73.345C43.4643 73.245 43.2593 73.175 42.9793 73.135L41.4043 72.895C40.6243 72.775 40.0243 72.515 39.6043 72.115C39.1843 71.705 38.9743 71.175 38.9743 70.525C38.9743 69.725 39.2793 69.095 39.8893 68.635C40.4993 68.175 41.3343 67.945 42.3943 67.945C42.9643 67.945 43.5343 68.03 44.1043 68.2C44.6843 68.36 45.2193 68.595 45.7093 68.905L44.5543 70.465C44.1243 70.215 43.7143 70.035 43.3243 69.925C42.9343 69.805 42.5443 69.745 42.1543 69.745C41.8443 69.745 41.5943 69.8 41.4043 69.91C41.2143 70.01 41.1193 70.145 41.1193 70.315C41.1193 70.475 41.1893 70.605 41.3293 70.705C41.4693 70.795 41.7093 70.865 42.0493 70.915L43.6243 71.155C44.4043 71.265 45.0043 71.525 45.4243 71.935C45.8543 72.335 46.0693 72.845 46.0693 73.465C46.0693 73.845 45.9793 74.2 45.7993 74.53C45.6193 74.86 45.3693 75.145 45.0493 75.385C44.7393 75.625 44.3643 75.815 43.9243 75.955C43.4843 76.085 43.0093 76.15 42.4993 76.15C41.7493 76.15 41.0493 76.065 40.3993 75.895C39.7593 75.715 39.2093 75.455 38.7493 75.115ZM47.9746 73.585V70.09H46.3696V68.065H47.9746V66.025L50.4046 65.5V68.065H52.6246V70.09H50.4046V73.105C50.4046 73.455 50.4796 73.705 50.6296 73.855C50.7896 73.995 51.0646 74.065 51.4546 74.065C51.6446 74.065 51.8246 74.055 51.9946 74.035C52.1646 74.005 52.3496 73.96 52.5496 73.9V75.865C52.3296 75.935 52.0496 75.99 51.7096 76.03C51.3696 76.08 51.0846 76.105 50.8546 76.105C49.9046 76.105 49.1846 75.895 48.6946 75.475C48.2146 75.045 47.9746 74.415 47.9746 73.585ZM53.2132 72.04C53.2132 71.47 53.3232 70.935 53.5432 70.435C53.7732 69.925 54.0782 69.485 54.4582 69.115C54.8482 68.745 55.3032 68.455 55.8232 68.245C56.3532 68.025 56.9182 67.915 57.5182 67.915C58.1182 67.915 58.6782 68.025 59.1982 68.245C59.7282 68.455 60.1832 68.745 60.5632 69.115C60.9532 69.485 61.2582 69.925 61.4782 70.435C61.7082 70.935 61.8232 71.47 61.8232 72.04C61.8232 72.61 61.7082 73.15 61.4782 73.66C61.2582 74.16 60.9532 74.595 60.5632 74.965C60.1832 75.335 59.7282 75.625 59.1982 75.835C58.6782 76.045 58.1182 76.15 57.5182 76.15C56.9182 76.15 56.3532 76.045 55.8232 75.835C55.3032 75.625 54.8482 75.335 54.4582 74.965C54.0782 74.595 53.7732 74.16 53.5432 73.66C53.3232 73.15 53.2132 72.61 53.2132 72.04ZM57.5182 74.05C58.0582 74.05 58.5132 73.855 58.8832 73.465C59.2632 73.075 59.4532 72.6 59.4532 72.04C59.4532 71.47 59.2632 70.99 58.8832 70.6C58.5132 70.21 58.0582 70.015 57.5182 70.015C56.9782 70.015 56.5182 70.21 56.1382 70.6C55.7682 70.99 55.5832 71.47 55.5832 72.04C55.5832 72.6 55.7682 73.075 56.1382 73.465C56.5182 73.855 56.9782 74.05 57.5182 74.05ZM62.9629 76V68.065H65.3929V68.575C65.6729 68.355 65.9779 68.19 66.3079 68.08C66.6479 67.97 67.0029 67.915 67.3729 67.915C67.8629 67.915 68.3079 68.015 68.7079 68.215C69.1179 68.405 69.4579 68.67 69.7279 69.01C70.0479 68.66 70.4279 68.39 70.8679 68.2C71.3079 68.01 71.7879 67.915 72.3079 67.915C73.2079 67.915 73.9429 68.215 74.5129 68.815C75.0929 69.415 75.3829 70.18 75.3829 71.11V76H72.9529V71.44C72.9529 71.01 72.8329 70.665 72.5929 70.405C72.3629 70.135 72.0529 70 71.6629 70C71.3929 70 71.1479 70.055 70.9279 70.165C70.7079 70.265 70.5179 70.41 70.3579 70.6C70.3679 70.68 70.3729 70.765 70.3729 70.855C70.3829 70.935 70.3879 71.02 70.3879 71.11V76H67.9579V71.44C67.9579 71.01 67.8379 70.665 67.5979 70.405C67.3679 70.135 67.0579 70 66.6679 70C66.3979 70 66.1529 70.05 65.9329 70.15C65.7229 70.24 65.5429 70.38 65.3929 70.57V76H62.9629ZM78.0353 67.33C77.6653 67.33 77.3503 67.2 77.0903 66.94C76.8303 66.68 76.7003 66.365 76.7003 65.995C76.7003 65.625 76.8303 65.31 77.0903 65.05C77.3503 64.79 77.6653 64.66 78.0353 64.66C78.4053 64.66 78.7203 64.79 78.9803 65.05C79.2403 65.31 79.3703 65.625 79.3703 65.995C79.3703 66.365 79.2403 66.68 78.9803 66.94C78.7203 67.2 78.4053 67.33 78.0353 67.33ZM79.2503 68.065V76H76.8203V68.065H79.2503ZM80.3711 76V74.305L84.0611 70.09H80.4011V68.065H87.2111V69.76L83.5061 73.975H87.3311V76H80.3711ZM90.9862 76.135C90.1462 76.135 89.4562 75.905 88.9162 75.445C88.3762 74.985 88.1062 74.395 88.1062 73.675C88.1062 72.925 88.3912 72.34 88.9612 71.92C89.5412 71.5 90.3462 71.29 91.3762 71.29C91.6862 71.29 91.9912 71.31 92.2912 71.35C92.5912 71.39 92.8862 71.445 93.1762 71.515V71.125C93.1762 70.725 93.0462 70.43 92.7862 70.24C92.5362 70.04 92.1612 69.94 91.6612 69.94C91.3512 69.94 91.0012 69.99 90.6112 70.09C90.2212 70.19 89.7712 70.35 89.2612 70.57L88.3912 68.785C89.0312 68.495 89.6562 68.28 90.2662 68.14C90.8862 67.99 91.4962 67.915 92.0962 67.915C93.1962 67.915 94.0512 68.18 94.6612 68.71C95.2712 69.23 95.5762 69.965 95.5762 70.915V76H93.1762V75.52C92.8562 75.74 92.5162 75.9 92.1562 76C91.8062 76.09 91.4162 76.135 90.9862 76.135ZM90.4162 73.63C90.4162 73.88 90.5262 74.075 90.7462 74.215C90.9662 74.355 91.2712 74.425 91.6612 74.425C91.9512 74.425 92.2212 74.395 92.4712 74.335C92.7312 74.275 92.9662 74.18 93.1762 74.05V73.03C92.9462 72.97 92.7112 72.925 92.4712 72.895C92.2312 72.865 91.9862 72.85 91.7362 72.85C91.3162 72.85 90.9912 72.92 90.7612 73.06C90.5312 73.19 90.4162 73.38 90.4162 73.63ZM97.8525 73.585V70.09H96.2475V68.065H97.8525V66.025L100.283 65.5V68.065H102.503V70.09H100.283V73.105C100.283 73.455 100.358 73.705 100.508 73.855C100.668 73.995 100.943 74.065 101.333 74.065C101.523 74.065 101.703 74.055 101.873 74.035C102.043 74.005 102.228 73.96 102.428 73.9V75.865C102.208 75.935 101.928 75.99 101.588 76.03C101.248 76.08 100.963 76.105 100.733 76.105C99.7825 76.105 99.0625 75.895 98.5725 75.475C98.0925 75.045 97.8525 74.415 97.8525 73.585ZM104.666 67.33C104.296 67.33 103.981 67.2 103.721 66.94C103.461 66.68 103.331 66.365 103.331 65.995C103.331 65.625 103.461 65.31 103.721 65.05C103.981 64.79 104.296 64.66 104.666 64.66C105.036 64.66 105.351 64.79 105.611 65.05C105.871 65.31 106.001 65.625 106.001 65.995C106.001 66.365 105.871 66.68 105.611 66.94C105.351 67.2 105.036 67.33 104.666 67.33ZM105.881 68.065V76H103.451V68.065H105.881ZM107.017 72.04C107.017 71.47 107.127 70.935 107.347 70.435C107.577 69.925 107.882 69.485 108.262 69.115C108.652 68.745 109.107 68.455 109.627 68.245C110.157 68.025 110.722 67.915 111.322 67.915C111.922 67.915 112.482 68.025 113.002 68.245C113.532 68.455 113.987 68.745 114.367 69.115C114.757 69.485 115.062 69.925 115.282 70.435C115.512 70.935 115.627 71.47 115.627 72.04C115.627 72.61 115.512 73.15 115.282 73.66C115.062 74.16 114.757 74.595 114.367 74.965C113.987 75.335 113.532 75.625 113.002 75.835C112.482 76.045 111.922 76.15 111.322 76.15C110.722 76.15 110.157 76.045 109.627 75.835C109.107 75.625 108.652 75.335 108.262 74.965C107.882 74.595 107.577 74.16 107.347 73.66C107.127 73.15 107.017 72.61 107.017 72.04ZM111.322 74.05C111.862 74.05 112.317 73.855 112.687 73.465C113.067 73.075 113.257 72.6 113.257 72.04C113.257 71.47 113.067 70.99 112.687 70.6C112.317 70.21 111.862 70.015 111.322 70.015C110.782 70.015 110.322 70.21 109.942 70.6C109.572 70.99 109.387 71.47 109.387 72.04C109.387 72.6 109.572 73.075 109.942 73.465C110.322 73.855 110.782 74.05 111.322 74.05ZM116.767 76V68.065H119.197V68.605C119.487 68.385 119.812 68.215 120.172 68.095C120.542 67.975 120.927 67.915 121.327 67.915C122.257 67.915 123.017 68.215 123.607 68.815C124.197 69.415 124.492 70.18 124.492 71.11V76H122.062V71.44C122.062 71.01 121.927 70.665 121.657 70.405C121.397 70.135 121.052 70 120.622 70C120.312 70 120.037 70.055 119.797 70.165C119.557 70.275 119.357 70.43 119.197 70.63V76H116.767Z" fill="white"/>
<g clip-path="url(#clip1)">
<path d="M141.993 95.3545L90.3921 125.124C88.3771 126.281 88.6331 129.087 90.6371 129.933L102.471 134.898L134.456 106.71C135.068 106.164 135.936 106.999 135.413 107.634L108.594 140.309V149.271C108.594 151.898 111.767 152.933 113.326 151.03L120.395 142.424L134.267 148.235C135.847 148.903 137.651 147.912 137.94 146.209L145.956 98.1154C146.335 95.8666 143.919 94.2412 141.993 95.3545Z" fill="white"/>
</g>
</g>
<defs>
<linearGradient id="paint0_linear" x1="61.0013" y1="14.5395" x2="14.3645" y2="30.248" gradientUnits="userSpaceOnUse">
<stop stop-color="#121C28"/>
<stop offset="1" stop-color="#2A2367"/>
</linearGradient>
<linearGradient id="paint1_linear" x1="114.404" y1="20.2994" x2="39.0881" y2="89.0192" gradientUnits="userSpaceOnUse">
<stop stop-color="#28235B"/>
<stop offset="1" stop-color="#E6007E"/>
</linearGradient>
<linearGradient id="paint2_linear" x1="147.997" y1="55.3693" x2="21.0256" y2="123.426" gradientUnits="userSpaceOnUse">
<stop stop-color="#FF9500"/>
<stop offset="1" stop-color="#E6007E"/>
</linearGradient>
<linearGradient id="paint3_linear" x1="154.688" y1="138.523" x2="112.34" y2="156.725" gradientUnits="userSpaceOnUse">
<stop stop-color="#E6332A"/>
<stop offset="1" stop-color="#FF645B"/>
</linearGradient>
<linearGradient id="paint4_linear" x1="132.879" y1="107.08" x2="84.638" y2="147.806" gradientUnits="userSpaceOnUse">
<stop stop-color="#FF9500"/>
<stop offset="1" stop-color="#FF645B"/>
</linearGradient>
<clipPath id="clip0">
<rect width="160" height="160" fill="white"/>
</clipPath>
<clipPath id="clip1">
<rect width="57" height="57" fill="white" transform="translate(89 95)"/>
</clipPath>
</defs>
</svg>
